<svg id="Layer_3" enable-background="new 0 0 64 64" height="512" viewBox="0 0 64 64" width="512" xmlns="http://www.w3.org/2000/svg"><path d="m60 62v-13.186c0-3.846-.672-7.663-1.987-11.278l-.026-.073c-1.315-3.614-1.987-7.431-1.987-11.277v-4.186h-9v40" fill="#f9d18b"/><path d="m4 62v-13.186c0-3.846.672-7.663 1.987-11.278l.026-.073c1.315-3.614 1.987-7.431 1.987-11.277v-4.186h9v40" fill="#f5b953"/><path d="m17 14h30v48h-30z" fill="#f5b953"/><path d="m17 57.304c1.452.453 2.956.696 4.5.696 11.874 0 21.5-14.103 21.5-31.5 0-4.442-.631-8.667-1.763-12.5h-24.237z" fill="#f9d18b"/><path d="m15 2h34v12h-34z" fill="#2b74ca"/><path d="m15 2v7.569c2.779.903 6.022 1.431 9.5 1.431 9.593 0 17.478-3.947 18.407-9z" fill="#3d98f7"/><path d="m21 18h8v4h-8z" fill="#fff"/><path d="m35 18h8v4h-8z" fill="#fff"/><path d="m21 26h8v4h-8z" fill="#fff"/><path d="m35 26h8v4h-8z" fill="#fff"/><path d="m21 34h8v4h-8z" fill="#fff"/><path d="m35 34h8v4h-8z" fill="#fff"/><path d="m21 42h8v4h-8z" fill="#fff"/><path d="m35 42h8v4h-8z" fill="#fff"/><path d="m39 62v-7c0-3.866-3.134-7-7-7-3.866 0-7 3.134-7 7v7" fill="#c7e2fc"/><g fill="#fff"><path d="m22 8.238-3.231-3.879c-.271-.324-.714-.441-1.109-.3-.396.144-.66.52-.66.941v7h2v-4.238l3.231 3.879c.195.232.478.359.769.359.114 0 .229-.02.341-.06.395-.143.659-.519.659-.94v-7h-2z"/><path d="m38 8.586-1.293-1.293c-.391-.391-1.023-.391-1.414 0l-1.293 1.293v-4.586h-2v7c0 .404.243.77.617.924.374.156.804.069 1.09-.217l2.293-2.293 2.293 2.293c.191.191.447.293.707.293.129 0 .259-.024.383-.076.374-.154.617-.52.617-.924v-7h-2z"/><path d="m25 5v6c0 .553.447 1 1 1h5v-2h-4v-1h4v-2h-4v-1h4v-2h-5c-.553 0-1 .447-1 1z"/><path d="m41 5v3c0 .553.447 1 1 1h3v1h-4v2h5c.553 0 1-.447 1-1v-3c0-.553-.447-1-1-1h-3v-1h4v-2h-5c-.553 0-1 .447-1 1z"/><path d="m50 25h2v2h-2z"/><path d="m50 29h2v2h-2z"/><path d="m50 33h2v2h-2z"/><path d="m50 37h2v2h-2z"/><path d="m54 37h2v2h-2z"/><path d="m50 41h2v2h-2z"/><path d="m54 41h2v2h-2z"/><path d="m50 45h2v2h-2z"/><path d="m54 45h2v2h-2z"/><path d="m50 49h2v2h-2z"/><path d="m54 49h2v2h-2z"/><path d="m50 53h2v2h-2z"/><path d="m54 53h2v2h-2z"/><path d="m12 25h2v2h-2z"/><path d="m12 29h2v2h-2z"/><path d="m12 33h2v2h-2z"/><path d="m12 37h2v2h-2z"/><path d="m8 37h2v2h-2z"/><path d="m12 41h2v2h-2z"/><path d="m8 41h2v2h-2z"/><path d="m12 45h2v2h-2z"/><path d="m8 45h2v2h-2z"/><path d="m12 49h2v2h-2z"/><path d="m8 49h2v2h-2z"/><path d="m12 53h2v2h-2z"/><path d="m8 53h2v2h-2z"/></g></svg>